<svg width="256" height="256" viewBox="0 0 256 256" fill="none" xmlns="http://www.w3.org/2000/svg">
<path d="M213.334 85.3306C213.334 132.457 175.128 170.667 127.999 170.667C80.8715 170.667 42.667 132.457 42.667 85.3306C42.667 38.2036 80.8715 0 127.999 0C175.128 0 213.334 38.2036 213.334 85.3306Z" fill="#414A58"/>
<path d="M104.522 114.397C105.353 113.702 105.332 112.42 104.524 111.7C101.78 109.255 99.3739 106.338 97.436 102.981C88.8853 88.171 92.2877 69.7397 104.65 58.8594C105.464 58.1434 105.492 56.8596 104.664 56.16L83.874 38.5901C83.2229 38.2576 82.4286 38.4188 81.9587 38.9788L74.4258 47.9561C73.9147 48.5653 73.892 49.4468 74.3711 50.0815L84.8635 63.9793C83.2885 67.1685 82.0731 70.5185 81.2353 73.962L64.2588 77.8653C63.4838 78.0434 62.9346 78.7333 62.9346 79.5285L62.9346 91.1378C62.9346 91.9331 63.4838 92.6229 64.2588 92.8011L81.2219 96.7012C82.0481 100.095 83.2575 103.442 84.866 106.684L74.3711 120.585C73.892 121.22 73.9147 122.101 74.4258 122.71L81.6484 131.318C82.2538 132.039 83.329 132.134 84.0512 131.53L104.522 114.397Z" fill="white"/>
<path d="M164.908 91.1345C163.89 90.7628 162.79 91.4214 162.571 92.4821C161.826 96.0805 160.502 99.6229 158.564 102.979C150.014 117.79 132.351 124.059 116.747 118.793C115.72 118.446 114.594 119.063 114.402 120.13L109.581 146.92C109.619 147.65 110.155 148.257 110.875 148.384L122.416 150.419C123.2 150.557 123.974 150.136 124.284 149.404L131.074 133.368C134.623 133.138 138.132 132.515 141.533 131.519L153.402 144.27C153.944 144.852 154.816 144.982 155.505 144.585L165.558 138.78C166.247 138.383 166.57 137.562 166.337 136.802L161.233 120.161C163.759 117.749 166.053 115.028 168.056 112.014L185.342 114.152C186.131 114.25 186.883 113.79 187.155 113.042L190.998 102.484C191.321 101.599 190.865 100.62 189.98 100.297L164.908 91.1345Z" fill="white"/>
<path d="M114.568 50.4682C114.755 51.5351 115.875 52.1584 116.903 51.8182C120.392 50.664 124.122 50.0393 127.997 50.0393C145.099 50.0393 159.36 62.2015 162.601 78.3479C162.814 79.4106 163.912 80.077 164.932 79.7098L190.543 70.4898C191.156 70.0922 191.414 69.3237 191.164 68.6367L187.156 57.6244C186.884 56.8772 186.132 56.4168 185.342 56.5144L168.06 58.6522C166.086 55.6936 163.792 52.966 161.229 50.5186L166.337 33.865C166.57 33.1047 166.248 32.2841 165.559 31.8865L155.505 26.0819C154.816 25.6843 153.944 25.815 153.402 26.3971L141.543 39.1374C138.191 38.1563 134.688 37.53 131.076 37.302L124.285 21.2627C123.975 20.5304 123.2 20.1093 122.417 20.2474L111.351 22.1986C110.424 22.3621 109.804 23.2459 109.966 24.1735L114.568 50.4682Z" fill="white"/>
<g clip-path="url(#clip0_45_5860)">
<path d="M228.733 255.562C226.636 255.562 224.697 255.107 222.916 254.197C221.175 253.287 219.789 251.941 218.76 250.16C217.771 248.34 217.276 246.143 217.276 243.571V226H221.966V243.215C221.966 246.104 222.678 248.201 224.103 249.507C225.567 250.813 227.526 251.466 229.98 251.466C232.75 251.466 235.026 250.556 236.807 248.735C238.587 246.915 239.478 244.204 239.478 240.603V226H244.168V255.028H239.597V250.101H238.766C238.132 251.486 237.044 252.752 235.501 253.9C233.957 255.008 231.701 255.562 228.733 255.562Z" fill="#414A58"/>
<path d="M201.013 255.028C199.351 255.028 198.065 254.573 197.154 253.663C196.284 252.753 195.848 251.506 195.848 249.923V230.096H187.122V226H195.848V215.671H200.538V226H210.036V230.096H200.538V249.211C200.538 250.398 201.112 250.991 202.259 250.991H208.73V255.028H201.013Z" fill="#414A58"/>
<path d="M154.734 255.028V226H159.305V230.927H160.136C160.77 229.542 161.838 228.295 163.342 227.187C164.885 226.039 167.141 225.465 170.109 225.465C172.286 225.465 174.225 225.921 175.927 226.831C177.668 227.741 179.053 229.087 180.082 230.867C181.111 232.648 181.626 234.845 181.626 237.457V255.028H176.936V237.813C176.936 234.924 176.204 232.826 174.739 231.52C173.315 230.214 171.376 229.561 168.922 229.561C166.112 229.561 163.817 230.472 162.036 232.292C160.295 234.113 159.424 236.823 159.424 240.425V255.028H154.734Z" fill="#414A58"/>
<path d="M129.485 255.562C127.388 255.562 125.449 255.107 123.668 254.197C121.926 253.287 120.541 251.941 119.512 250.16C118.523 248.34 118.028 246.143 118.028 243.571V226H122.718V243.215C122.718 246.104 123.43 248.201 124.855 249.507C126.319 250.813 128.278 251.466 130.732 251.466C133.502 251.466 135.778 250.556 137.559 248.735C139.339 246.915 140.23 244.204 140.23 240.603V226H144.919V255.028H140.349V250.101H139.517C138.884 251.486 137.796 252.752 136.253 253.9C134.709 255.008 132.453 255.562 129.485 255.562Z" fill="#414A58"/>
<path d="M96.2698 255.859C93.2621 255.859 90.9074 255.285 89.2057 254.137C87.5435 252.99 86.3365 251.684 85.5846 250.22H84.7535V255.028H80.1826V213.474H84.8722V230.571H85.7033C86.1782 229.66 86.851 228.81 87.7216 228.018C88.5923 227.187 89.7202 226.514 91.1053 226C92.53 225.446 94.2515 225.169 96.2698 225.169C98.8026 225.169 101.098 225.782 103.156 227.009C105.253 228.196 106.915 229.918 108.142 232.173C109.369 234.39 109.983 237.041 109.983 240.128V240.9C109.983 243.986 109.349 246.658 108.083 248.914C106.856 251.169 105.194 252.891 103.096 254.078C101.039 255.265 98.763 255.859 96.2698 255.859ZM95.0232 251.704C98.0309 251.704 100.465 250.754 102.325 248.854C104.224 246.915 105.174 244.224 105.174 240.781V240.247C105.174 236.804 104.224 234.132 102.325 232.233C100.465 230.294 98.0309 229.324 95.0232 229.324C92.0551 229.324 89.6014 230.294 87.6623 232.233C85.7627 234.132 84.8129 236.804 84.8129 240.247V240.781C84.8129 244.224 85.7627 246.915 87.6623 248.854C89.6014 250.754 92.0551 251.704 95.0232 251.704Z" fill="#414A58"/>
<path d="M54.9364 255.562C52.839 255.562 50.8998 255.107 49.1189 254.197C47.3776 253.287 45.9925 251.941 44.9636 250.16C43.9742 248.34 43.4795 246.143 43.4795 243.571V226H48.1691V243.215C48.1691 246.104 48.8815 248.201 50.3062 249.507C51.7704 250.813 53.7294 251.466 56.183 251.466C58.9533 251.466 61.2288 250.556 63.0097 248.735C64.7906 246.915 65.681 244.204 65.681 240.603V226H70.3706V255.028H65.7997V250.101H64.9687C64.3355 251.486 63.2471 252.752 61.7037 253.9C60.1603 255.008 57.9045 255.562 54.9364 255.562Z" fill="#414A58"/>
<path d="M11.8936 255.028V213.474H16.5832V237.932H17.4142L30.7114 226H37.2413L21.1541 240.128L37.7162 255.028H31.2457L17.4142 242.384H16.5832V255.028H11.8936Z" fill="#414A58"/>
</g>
<defs>
<clipPath id="clip0_45_5860">
<rect width="232.812" height="42.6667" fill="white" transform="translate(11.5938 213.333)"/>
</clipPath>
</defs>
</svg>
