<svg width="256" height="256" viewBox="0 0 256 256" fill="none" xmlns="http://www.w3.org/2000/svg">
<path d="M213.334 85.3306C213.334 132.457 175.128 170.667 127.999 170.667C80.8715 170.667 42.667 132.457 42.667 85.3306C42.667 38.2036 80.8715 0 127.999 0C175.128 0 213.334 38.2036 213.334 85.3306Z" fill="#0064FF"/>
<path d="M104.521 114.397C105.352 113.702 105.331 112.42 104.523 111.7C101.779 109.255 99.3729 106.338 97.4351 102.981C88.8843 88.171 92.2868 69.7397 104.649 58.8594C105.463 58.1434 105.491 56.8596 104.663 56.16L83.873 38.5901C83.222 38.2576 82.4276 38.4188 81.9577 38.9788L74.4249 47.9561C73.9137 48.5653 73.891 49.4468 74.3702 50.0815L84.8626 63.9793C83.2875 67.1685 82.0721 70.5185 81.2343 73.962L64.2578 77.8653C63.4828 78.0434 62.9336 78.7333 62.9336 79.5285L62.9336 91.1378C62.9336 91.9331 63.4828 92.6229 64.2578 92.8011L81.2209 96.7012C82.0472 100.095 83.2566 103.442 84.865 106.684L74.3702 120.585C73.891 121.22 73.9137 122.101 74.4249 122.71L81.6475 131.318C82.2528 132.039 83.328 132.134 84.0502 131.53L104.521 114.397Z" fill="white"/>
<path d="M164.909 91.1345C163.891 90.7628 162.791 91.4214 162.572 92.4821C161.827 96.0805 160.503 99.6229 158.565 102.979C150.015 117.79 132.352 124.059 116.748 118.793C115.721 118.446 114.595 119.063 114.403 120.13L109.582 146.92C109.62 147.65 110.156 148.257 110.876 148.384L122.417 150.419C123.201 150.557 123.975 150.136 124.285 149.404L131.075 133.368C134.624 133.138 138.133 132.515 141.534 131.519L153.403 144.27C153.945 144.852 154.817 144.982 155.505 144.585L165.559 138.78C166.248 138.383 166.571 137.562 166.338 136.802L161.234 120.161C163.76 117.749 166.054 115.028 168.057 112.014L185.343 114.152C186.132 114.25 186.884 113.79 187.156 113.042L190.999 102.484C191.321 101.599 190.866 100.62 189.981 100.297L164.909 91.1345Z" fill="white"/>
<path d="M114.569 50.4682C114.756 51.5351 115.876 52.1584 116.904 51.8182C120.393 50.664 124.123 50.0393 127.998 50.0393C145.1 50.0393 159.361 62.2015 162.602 78.3479C162.815 79.4106 163.913 80.077 164.933 79.7098L190.544 70.4898C191.157 70.0922 191.415 69.3237 191.165 68.6367L187.157 57.6244C186.885 56.8772 186.133 56.4168 185.343 56.5144L168.061 58.6522C166.087 55.6936 163.793 52.966 161.23 50.5186L166.338 33.865C166.571 33.1047 166.248 32.2841 165.56 31.8865L155.506 26.0819C154.817 25.6843 153.945 25.815 153.403 26.3971L141.544 39.1374C138.192 38.1563 134.689 37.53 131.077 37.302L124.286 21.2627C123.976 20.5304 123.201 20.1093 122.418 20.2474L111.352 22.1986C110.425 22.3621 109.805 23.2459 109.967 24.1735L114.569 50.4682Z" fill="white"/>
<g clip-path="url(#clip0_45_5845)">
<path d="M228.733 255.562C226.636 255.562 224.697 255.107 222.916 254.197C221.175 253.287 219.789 251.941 218.76 250.16C217.771 248.34 217.276 246.143 217.276 243.571V226H221.966V243.215C221.966 246.104 222.678 248.201 224.103 249.507C225.567 250.813 227.526 251.466 229.98 251.466C232.75 251.466 235.026 250.556 236.807 248.735C238.587 246.915 239.478 244.204 239.478 240.603V226H244.168V255.028H239.597V250.101H238.766C238.132 251.486 237.044 252.752 235.501 253.9C233.957 255.008 231.701 255.562 228.733 255.562Z" fill="#002866"/>
<path d="M201.013 255.028C199.351 255.028 198.065 254.573 197.154 253.663C196.284 252.753 195.848 251.506 195.848 249.923V230.096H187.122V226H195.848V215.671H200.538V226H210.036V230.096H200.538V249.211C200.538 250.398 201.112 250.991 202.259 250.991H208.73V255.028H201.013Z" fill="#002866"/>
<path d="M154.733 255.028V226H159.304V230.927H160.135C160.769 229.542 161.837 228.295 163.341 227.187C164.884 226.039 167.14 225.465 170.108 225.465C172.285 225.465 174.224 225.921 175.926 226.831C177.667 227.741 179.052 229.087 180.081 230.867C181.11 232.648 181.625 234.845 181.625 237.457V255.028H176.935V237.813C176.935 234.924 176.203 232.826 174.738 231.52C173.314 230.214 171.375 229.561 168.921 229.561C166.111 229.561 163.816 230.472 162.035 232.292C160.294 234.113 159.423 236.823 159.423 240.425V255.028H154.733Z" fill="#002866"/>
<path d="M129.487 255.562C127.39 255.562 125.451 255.107 123.67 254.197C121.928 253.287 120.543 251.941 119.514 250.16C118.525 248.34 118.03 246.143 118.03 243.571V226H122.72V243.215C122.72 246.104 123.432 248.201 124.857 249.507C126.321 250.813 128.28 251.466 130.734 251.466C133.504 251.466 135.78 250.556 137.56 248.735C139.341 246.915 140.232 244.204 140.232 240.603V226H144.921V255.028H140.351V250.101H139.519C138.886 251.486 137.798 252.752 136.254 253.9C134.711 255.008 132.455 255.562 129.487 255.562Z" fill="#002866"/>
<path d="M96.2708 255.859C93.2631 255.859 90.9084 255.285 89.2067 254.137C87.5445 252.99 86.3375 251.684 85.5856 250.22H84.7545V255.028H80.1836V213.474H84.8732V230.571H85.7043C86.1792 229.66 86.852 228.81 87.7226 228.018C88.5933 227.187 89.7211 226.514 91.1063 226C92.531 225.446 94.2525 225.169 96.2708 225.169C98.8036 225.169 101.099 225.782 103.157 227.009C105.254 228.196 106.916 229.918 108.143 232.173C109.37 234.39 109.983 237.041 109.983 240.128V240.9C109.983 243.986 109.35 246.658 108.084 248.914C106.857 251.169 105.195 252.891 103.097 254.078C101.04 255.265 98.764 255.859 96.2708 255.859ZM95.0242 251.704C98.0319 251.704 100.466 250.754 102.326 248.854C104.225 246.915 105.175 244.224 105.175 240.781V240.247C105.175 236.804 104.225 234.132 102.326 232.233C100.466 230.294 98.0319 229.324 95.0242 229.324C92.0561 229.324 89.6024 230.294 87.6632 232.233C85.7636 234.132 84.8139 236.804 84.8139 240.247V240.781C84.8139 244.224 85.7636 246.915 87.6632 248.854C89.6024 250.754 92.0561 251.704 95.0242 251.704Z" fill="#002866"/>
<path d="M54.9364 255.562C52.839 255.562 50.8998 255.107 49.1189 254.197C47.3776 253.287 45.9925 251.941 44.9636 250.16C43.9742 248.34 43.4795 246.143 43.4795 243.571V226H48.1691V243.215C48.1691 246.104 48.8815 248.201 50.3062 249.507C51.7704 250.813 53.7294 251.466 56.183 251.466C58.9533 251.466 61.2288 250.556 63.0097 248.735C64.7906 246.915 65.681 244.204 65.681 240.603V226H70.3706V255.028H65.7997V250.101H64.9687C64.3355 251.486 63.2471 252.752 61.7037 253.9C60.1603 255.008 57.9045 255.562 54.9364 255.562Z" fill="#002866"/>
<path d="M11.8936 255.028V213.474H16.5832V237.932H17.4142L30.7114 226H37.2413L21.1541 240.128L37.7162 255.028H31.2457L17.4142 242.384H16.5832V255.028H11.8936Z" fill="#002866"/>
</g>
<defs>
<clipPath id="clip0_45_5845">
<rect width="232.812" height="42.6667" fill="white" transform="translate(11.5938 213.333)"/>
</clipPath>
</defs>
</svg>
