<svg width="256" height="256" viewBox="0 0 256 256" fill="none" xmlns="http://www.w3.org/2000/svg">
<path fill-rule="evenodd" clip-rule="evenodd" d="M127.998 256C198.691 256 256 198.686 256 127.996C256 57.3054 198.691 0 127.998 0C57.3068 0 0 57.3054 0 127.996C0 198.686 57.3068 256 127.998 256ZM92.784 167.549C93.9972 168.63 94.0278 170.553 92.7819 171.596L62.0753 197.294C60.992 198.201 59.3792 198.059 58.4712 196.977L47.6373 184.065C46.8705 183.152 46.8365 181.829 47.5552 180.877L63.2975 160.026C60.8848 155.163 59.0707 150.142 57.8314 145.052L32.3868 139.202C31.2242 138.934 30.4004 137.9 30.4004 136.707V119.293C30.4004 118.1 31.2242 117.065 32.3868 116.798L57.8515 110.943C59.1082 105.778 60.9313 100.753 63.2938 95.9689L47.5552 75.1221C46.8365 74.1701 46.8705 72.8479 47.6373 71.9341L58.9366 58.4682C59.6414 57.6282 60.8329 57.3863 61.8095 57.885L92.9951 84.24C94.2368 85.2894 94.1944 87.215 92.974 88.2891C74.4301 104.61 69.3265 132.256 82.1526 154.472C85.0593 159.507 88.6682 163.883 92.784 167.549ZM183.363 136.702C181.837 136.144 180.187 137.132 179.858 138.723C178.741 144.121 176.755 149.434 173.848 154.469C161.022 176.684 134.527 186.088 111.121 178.189C109.581 177.669 107.892 178.595 107.604 180.195L100.373 220.38C100.429 221.475 101.235 222.386 102.315 222.576L119.626 225.629C120.801 225.836 121.963 225.204 122.428 224.106L132.612 200.052C137.937 199.707 143.2 198.773 148.302 197.279L166.104 216.404C166.917 217.277 168.225 217.474 169.258 216.877L184.339 208.17C185.372 207.574 185.856 206.343 185.507 205.202L177.851 180.242C181.639 176.623 185.081 172.542 188.085 168.021L214.015 171.228C215.198 171.375 216.327 170.684 216.734 169.563L222.499 153.725C222.982 152.398 222.299 150.93 220.972 150.445L183.363 136.702ZM111.356 77.7276C109.814 78.2379 108.133 77.303 107.853 75.7026L100.951 36.2605C100.707 34.8691 101.637 33.5434 103.028 33.2981L119.627 30.3714C120.801 30.1642 121.963 30.7959 122.428 31.8943L132.615 55.9533C138.033 56.2953 143.288 57.2347 148.316 58.7065L166.105 39.5959C166.918 38.7228 168.226 38.5267 169.259 39.1231L184.34 47.8301C185.373 48.4265 185.857 49.6574 185.507 50.7978L177.845 75.7783C181.69 79.4493 185.13 83.5406 188.092 87.9786L214.015 84.7719C215.199 84.6255 216.327 85.316 216.735 86.437L222.747 102.955C223.122 103.986 222.736 105.139 221.816 105.735L183.399 119.565C181.869 120.116 180.223 119.116 179.903 117.522C175.041 93.3025 153.65 75.0592 127.998 75.0592C122.184 75.0592 116.589 75.9963 111.356 77.7276Z" fill="#414A58"/>
</svg>
