<svg width="256" height="256" viewBox="0 0 256 256" fill="none" xmlns="http://www.w3.org/2000/svg">
<path d="M256 127.996C256 198.686 198.691 256 127.998 256C57.3068 256 0 198.686 0 127.996C0 57.3054 57.3068 0 127.998 0C198.691 0 256 57.3054 256 127.996Z" fill="#0064FF"/>
<path d="M92.7799 171.596C94.0259 170.553 93.9953 168.63 92.7821 167.549C88.6662 163.883 85.0574 159.507 82.1506 154.472C69.3245 132.256 74.4282 104.61 92.972 88.2891C94.1925 87.215 94.2349 85.2894 92.9931 84.24L61.8075 57.885C60.831 57.3863 59.6394 57.6282 58.9346 58.4682L47.6353 71.9341C46.8686 72.8479 46.8345 74.1702 47.5533 75.1222L63.2919 95.9689C60.9293 100.753 59.1062 105.778 57.8495 110.943L32.3848 116.798C31.2223 117.065 30.3984 118.1 30.3984 119.293L30.3984 136.707C30.3984 137.9 31.2223 138.934 32.3848 139.202L57.8294 145.052C59.0688 150.142 60.8829 155.163 63.2956 160.026L47.5533 180.877C46.8345 181.829 46.8686 183.152 47.6353 184.065L58.4692 196.977C59.3772 198.059 60.9901 198.201 62.0733 197.294L92.7799 171.596Z" fill="white"/>
<path d="M183.365 136.702C181.839 136.144 180.189 137.132 179.86 138.723C178.743 144.121 176.757 149.434 173.85 154.469C161.024 176.684 134.529 186.088 111.123 178.189C109.583 177.669 107.894 178.595 107.606 180.195L100.375 220.38C100.431 221.475 101.237 222.386 102.316 222.577L119.628 225.629C120.803 225.836 121.965 225.205 122.43 224.106L132.614 200.053C137.939 199.707 143.202 198.773 148.304 197.279L166.106 216.405C166.919 217.278 168.227 217.474 169.26 216.877L184.341 208.17C185.374 207.574 185.858 206.343 185.509 205.203L177.853 180.242C181.641 176.623 185.083 172.542 188.087 168.021L214.017 171.229C215.2 171.375 216.328 170.684 216.736 169.563L222.501 153.725C222.984 152.398 222.301 150.93 220.974 150.445L183.365 136.702Z" fill="white"/>
<path d="M107.855 75.7023C108.135 77.3027 109.816 78.2377 111.358 77.7273C116.591 75.996 122.186 75.059 127.999 75.059C153.652 75.059 175.043 93.3023 179.905 117.522C180.225 119.116 181.871 120.116 183.401 119.565L221.818 105.735C222.738 105.138 223.124 103.986 222.749 102.955L216.737 86.4367C216.329 85.3158 215.201 84.6252 214.017 84.7716L188.094 87.9783C185.132 83.5404 181.692 79.449 177.847 75.778L185.509 50.7975C185.859 49.6571 185.375 48.4263 184.342 47.8298L169.261 39.1229C168.228 38.5264 166.92 38.7225 166.107 39.5957L148.318 58.7062C143.29 57.2344 138.035 56.295 132.617 55.9531L122.43 31.8941C121.965 30.7956 120.803 30.164 119.628 30.3711L103.03 33.2979C101.639 33.5432 100.709 34.8689 100.953 36.2603L107.855 75.7023Z" fill="white"/>
</svg>
