<svg width="256" height="256" viewBox="0 0 256 256" fill="none" xmlns="http://www.w3.org/2000/svg">
<path fill-rule="evenodd" clip-rule="evenodd" d="M127.999 170.667C175.128 170.667 213.334 132.457 213.334 85.3306C213.334 38.2036 175.128 0 127.999 0C80.8715 0 42.667 38.2036 42.667 85.3306C42.667 132.457 80.8715 170.667 127.999 170.667ZM104.523 111.7C105.332 112.42 105.352 113.702 104.522 114.397L84.0505 131.53C83.3283 132.134 82.2531 132.039 81.6478 131.318L74.4252 122.71C73.914 122.101 73.8913 121.22 74.3705 120.585L84.8653 106.684C83.2569 103.442 82.0475 100.095 81.2212 96.7012L64.2582 92.8011C63.4832 92.6229 62.9339 91.933 62.9339 91.1378V79.5285C62.9339 78.7332 63.4832 78.0434 64.2582 77.8652L81.2346 73.962C82.0724 70.5184 83.2879 67.1685 84.8629 63.9793L74.3705 50.0814C73.8913 49.4468 73.914 48.5653 74.4252 47.9561L81.958 38.9788C82.4279 38.4188 83.2223 38.2576 83.8733 38.59L104.664 56.16C105.492 56.8596 105.463 58.1433 104.65 58.8594C92.2871 69.7397 88.8847 88.171 97.4354 102.981C99.3732 106.338 101.779 109.255 104.523 111.7ZM164.909 91.1345C163.892 90.7627 162.792 91.4214 162.572 92.482C161.827 96.0804 160.504 99.6228 158.566 102.979C150.015 117.79 132.352 124.059 116.748 118.792C115.721 118.446 114.595 119.063 114.403 120.13L109.582 146.92C109.62 147.65 110.157 148.257 110.877 148.384L122.418 150.419C123.201 150.557 123.976 150.136 124.286 149.404L131.075 133.368C134.625 133.138 138.134 132.515 141.535 131.519L153.403 144.27C153.945 144.852 154.817 144.982 155.506 144.585L165.56 138.78C166.248 138.383 166.571 137.562 166.338 136.802L161.234 120.161C163.76 117.749 166.054 115.028 168.057 112.014L185.343 114.152C186.133 114.25 186.885 113.789 187.157 113.042L191 102.483C191.322 101.599 190.866 100.62 189.982 100.297L164.909 91.1345ZM116.905 51.8184C115.876 52.1586 114.756 51.5353 114.569 50.4684L109.968 24.1737C109.805 23.2461 110.425 22.3623 111.352 22.1988L122.418 20.2476C123.201 20.1095 123.976 20.5306 124.286 21.2629L131.077 37.3022C134.689 37.5302 138.192 38.1565 141.544 39.1376L153.404 26.3973C153.945 25.8152 154.817 25.6845 155.506 26.0821L165.56 31.8867C166.249 32.2843 166.572 33.1049 166.338 33.8652L161.23 50.5188C163.794 52.9662 166.087 55.6938 168.062 58.6524L185.344 56.5146C186.133 56.417 186.885 56.8774 187.157 57.6246L191.165 68.6369C191.415 69.3239 191.158 70.0924 190.544 70.49L164.933 79.71C163.913 80.0772 162.816 79.4108 162.602 78.3481C159.361 62.2017 145.1 50.0395 127.999 50.0395C124.123 50.0395 120.393 50.6642 116.905 51.8184Z" fill="white"/>
<g clip-path="url(#clip0_45_5823)">
<path d="M228.733 255.562C226.636 255.562 224.697 255.107 222.916 254.197C221.175 253.287 219.789 251.941 218.76 250.16C217.771 248.34 217.276 246.143 217.276 243.571V226H221.966V243.215C221.966 246.104 222.678 248.201 224.103 249.507C225.567 250.813 227.526 251.466 229.98 251.466C232.75 251.466 235.026 250.556 236.807 248.735C238.587 246.915 239.478 244.204 239.478 240.603V226H244.168V255.028H239.597V250.101H238.766C238.132 251.486 237.044 252.752 235.501 253.9C233.957 255.008 231.701 255.562 228.733 255.562Z" fill="white"/>
<path d="M201.013 255.028C199.351 255.028 198.065 254.573 197.154 253.663C196.284 252.753 195.848 251.506 195.848 249.923V230.096H187.122V226H195.848V215.671H200.538V226H210.036V230.096H200.538V249.211C200.538 250.398 201.112 250.991 202.259 250.991H208.73V255.028H201.013Z" fill="white"/>
<path d="M154.733 255.028V226H159.304V230.927H160.135C160.769 229.542 161.837 228.295 163.341 227.187C164.884 226.039 167.14 225.465 170.108 225.465C172.285 225.465 174.224 225.921 175.926 226.831C177.667 227.741 179.052 229.087 180.081 230.867C181.11 232.648 181.625 234.845 181.625 237.457V255.028H176.935V237.813C176.935 234.924 176.203 232.826 174.738 231.52C173.314 230.214 171.375 229.561 168.921 229.561C166.111 229.561 163.816 230.472 162.035 232.292C160.294 234.113 159.423 236.823 159.423 240.425V255.028H154.733Z" fill="white"/>
<path d="M129.487 255.562C127.39 255.562 125.451 255.107 123.67 254.197C121.928 253.287 120.543 251.941 119.514 250.16C118.525 248.34 118.03 246.143 118.03 243.571V226H122.72V243.215C122.72 246.104 123.432 248.201 124.857 249.507C126.321 250.813 128.28 251.466 130.734 251.466C133.504 251.466 135.78 250.556 137.56 248.735C139.341 246.915 140.232 244.204 140.232 240.603V226H144.921V255.028H140.351V250.101H139.519C138.886 251.486 137.798 252.752 136.254 253.9C134.711 255.008 132.455 255.562 129.487 255.562Z" fill="white"/>
<path d="M96.2708 255.859C93.2631 255.859 90.9084 255.285 89.2067 254.137C87.5445 252.99 86.3375 251.684 85.5856 250.22H84.7545V255.028H80.1836V213.474H84.8732V230.571H85.7043C86.1792 229.66 86.852 228.81 87.7226 228.018C88.5933 227.187 89.7211 226.514 91.1063 226C92.531 225.446 94.2525 225.169 96.2708 225.169C98.8036 225.169 101.099 225.782 103.157 227.009C105.254 228.196 106.916 229.918 108.143 232.173C109.37 234.39 109.983 237.041 109.983 240.128V240.9C109.983 243.986 109.35 246.658 108.084 248.914C106.857 251.169 105.195 252.891 103.097 254.078C101.04 255.265 98.764 255.859 96.2708 255.859ZM95.0242 251.704C98.0319 251.704 100.466 250.754 102.326 248.854C104.225 246.915 105.175 244.224 105.175 240.781V240.247C105.175 236.804 104.225 234.132 102.326 232.233C100.466 230.294 98.0319 229.324 95.0242 229.324C92.0561 229.324 89.6024 230.294 87.6632 232.233C85.7636 234.132 84.8139 236.804 84.8139 240.247V240.781C84.8139 244.224 85.7636 246.915 87.6632 248.854C89.6024 250.754 92.0561 251.704 95.0242 251.704Z" fill="white"/>
<path d="M54.9364 255.562C52.839 255.562 50.8998 255.107 49.1189 254.197C47.3776 253.287 45.9925 251.941 44.9636 250.16C43.9742 248.34 43.4795 246.143 43.4795 243.571V226H48.1691V243.215C48.1691 246.104 48.8815 248.201 50.3062 249.507C51.7704 250.813 53.7294 251.466 56.183 251.466C58.9533 251.466 61.2288 250.556 63.0097 248.735C64.7906 246.915 65.681 244.204 65.681 240.603V226H70.3706V255.028H65.7997V250.101H64.9687C64.3355 251.486 63.2471 252.752 61.7037 253.9C60.1603 255.008 57.9045 255.562 54.9364 255.562Z" fill="white"/>
<path d="M11.8936 255.028V213.474H16.5832V237.932H17.4142L30.7114 226H37.2413L21.1541 240.128L37.7162 255.028H31.2457L17.4142 242.384H16.5832V255.028H11.8936Z" fill="white"/>
</g>
<defs>
<clipPath id="clip0_45_5823">
<rect width="232.812" height="42.6667" fill="white" transform="translate(11.5938 213.333)"/>
</clipPath>
</defs>
</svg>
