<svg width="256" height="256" viewBox="0 0 256 256" fill="none" xmlns="http://www.w3.org/2000/svg">
<path d="M256 127.996C256 198.686 198.691 256 127.998 256C57.3068 256 0 198.686 0 127.996C0 57.3054 57.3068 0 127.998 0C198.691 0 256 57.3054 256 127.996Z" fill="#414A58"/>
<path d="M92.7839 171.596C94.0298 170.553 93.9992 168.63 92.786 167.549C88.6701 163.883 85.0613 159.507 82.1545 154.472C69.3284 132.256 74.4321 104.61 92.9759 88.2891C94.1964 87.215 94.2388 85.2894 92.997 84.24L61.8114 57.885C60.8349 57.3863 59.6433 57.6282 58.9385 58.4682L47.6392 71.9341C46.8725 72.8479 46.8384 74.1702 47.5572 75.1222L63.2958 95.9689C60.9332 100.753 59.1101 105.778 57.8534 110.943L32.3887 116.798C31.2262 117.065 30.4023 118.1 30.4023 119.293L30.4023 136.707C30.4023 137.9 31.2262 138.934 32.3887 139.202L57.8333 145.052C59.0727 150.142 60.8868 155.163 63.2995 160.026L47.5572 180.877C46.8385 181.829 46.8725 183.152 47.6392 184.065L58.4731 196.977C59.3811 198.059 60.994 198.201 62.0772 197.294L92.7839 171.596Z" fill="white"/>
<path d="M183.361 136.702C181.835 136.144 180.185 137.132 179.856 138.723C178.739 144.121 176.753 149.434 173.846 154.469C161.02 176.684 134.525 186.088 111.12 178.189C109.579 177.669 107.89 178.595 107.602 180.195L100.371 220.38C100.427 221.475 101.233 222.386 102.313 222.577L119.624 225.629C120.799 225.836 121.961 225.205 122.426 224.106L132.611 200.053C137.935 199.707 143.198 198.773 148.3 197.279L166.102 216.405C166.915 217.278 168.223 217.474 169.256 216.877L184.337 208.17C185.37 207.574 185.854 206.343 185.505 205.203L177.849 180.242C181.637 176.623 185.079 172.542 188.084 168.021L214.013 171.229C215.196 171.375 216.325 170.684 216.733 169.563L222.497 153.725C222.98 152.398 222.297 150.93 220.97 150.445L183.361 136.702Z" fill="white"/>
<path d="M107.851 75.7023C108.131 77.3027 109.812 78.2377 111.354 77.7273C116.587 75.996 122.182 75.059 127.996 75.059C153.648 75.059 175.039 93.3023 179.901 117.522C180.221 119.116 181.867 120.116 183.397 119.565L221.814 105.735C222.734 105.138 223.12 103.986 222.745 102.955L216.733 86.4367C216.325 85.3158 215.197 84.6252 214.013 84.7716L188.09 87.9783C185.128 83.5404 181.688 79.449 177.843 75.778L185.505 50.7975C185.855 49.6571 185.371 48.4263 184.338 47.8298L169.257 39.1229C168.224 38.5264 166.916 38.7225 166.103 39.5957L148.314 58.7062C143.286 57.2344 138.031 56.295 132.613 55.9531L122.427 31.8941C121.961 30.7956 120.799 30.164 119.625 30.3711L103.026 33.2979C101.635 33.5432 100.705 34.8689 100.949 36.2603L107.851 75.7023Z" fill="white"/>
</svg>
