<svg width="1364" height="256" viewBox="0 0 1364 256" fill="none" xmlns="http://www.w3.org/2000/svg">
<path d="M256 127.996C256 198.686 198.691 256 127.998 256C57.3068 256 0 198.686 0 127.996C0 57.3054 57.3068 0 127.998 0C198.691 0 256 57.3054 256 127.996Z" fill="#16191D"/>
<path d="M92.7799 171.595C94.0259 170.552 93.9953 168.63 92.7821 167.549C88.6662 163.883 85.0574 159.506 82.1506 154.471C69.3245 132.256 74.4282 104.609 92.972 88.2886C94.1925 87.2145 94.2349 85.2889 92.9931 84.2395L61.8075 57.8845C60.831 57.3858 59.6394 57.6277 58.9346 58.4677L47.6353 71.9336C46.8686 72.8474 46.8345 74.1697 47.5533 75.1217L63.2919 95.9684C60.9293 100.752 59.1062 105.777 57.8495 110.943L32.3848 116.797C31.2223 117.065 30.3984 118.099 30.3984 119.292L30.3984 136.706C30.3984 137.899 31.2223 138.934 32.3848 139.201L57.8294 145.051C59.0688 150.142 60.8829 155.163 63.2956 160.025L47.5533 180.877C46.8345 181.829 46.8686 183.151 47.6353 184.065L58.4692 196.976C59.3772 198.058 60.9901 198.2 62.0733 197.294L92.7799 171.595Z" fill="white"/>
<path d="M183.365 136.702C181.839 136.144 180.189 137.132 179.86 138.723C178.743 144.121 176.757 149.434 173.85 154.469C161.024 176.684 134.529 186.088 111.123 178.189C109.583 177.669 107.894 178.595 107.606 180.195L100.375 220.38C100.431 221.475 101.237 222.386 102.316 222.577L119.628 225.629C120.803 225.836 121.965 225.205 122.43 224.106L132.614 200.053C137.939 199.707 143.202 198.773 148.304 197.279L166.106 216.405C166.919 217.278 168.227 217.474 169.26 216.877L184.341 208.17C185.374 207.574 185.858 206.343 185.509 205.203L177.853 180.242C181.641 176.623 185.083 172.542 188.087 168.021L214.017 171.229C215.2 171.375 216.328 170.684 216.736 169.563L222.501 153.725C222.984 152.398 222.301 150.93 220.974 150.445L183.365 136.702Z" fill="white"/>
<path d="M107.855 75.7023C108.135 77.3027 109.816 78.2377 111.358 77.7273C116.591 75.996 122.186 75.059 127.999 75.059C153.652 75.059 175.043 93.3023 179.905 117.522C180.225 119.116 181.871 120.116 183.401 119.565L221.818 105.735C222.738 105.138 223.124 103.986 222.749 102.955L216.737 86.4367C216.329 85.3158 215.201 84.6252 214.017 84.7716L188.094 87.9783C185.132 83.5404 181.692 79.449 177.847 75.778L185.509 50.7975C185.859 49.6571 185.375 48.4263 184.342 47.8298L169.261 39.1229C168.228 38.5264 166.92 38.7225 166.107 39.5957L148.318 58.7062C143.29 57.2344 138.035 56.295 132.617 55.9531L122.43 31.8941C121.965 30.7956 120.803 30.164 119.628 30.3711L103.03 33.2979C101.639 33.5432 100.709 34.8689 100.953 36.2603L107.855 75.7023Z" fill="white"/>
<path d="M1296.41 218.112C1287.36 218.112 1279 216.149 1271.32 212.224C1263.81 208.299 1257.84 202.496 1253.4 194.816C1249.13 186.965 1247 177.493 1247 166.4V90.624H1267.22V164.864C1267.22 177.323 1270.3 186.368 1276.44 192C1282.75 197.632 1291.2 200.448 1301.78 200.448C1313.73 200.448 1323.54 196.523 1331.22 188.672C1338.9 180.821 1342.74 169.131 1342.74 153.6V90.624H1362.97V215.808H1343.26V194.56H1339.67C1336.94 200.533 1332.25 205.995 1325.59 210.944C1318.94 215.723 1309.21 218.112 1296.41 218.112Z" fill="#16191D"/>
<path d="M1176.87 215.808C1169.7 215.808 1164.16 213.845 1160.23 209.92C1156.48 205.995 1154.6 200.619 1154.6 193.792V108.288H1116.97V90.6241H1154.6V46.0801H1174.82V90.6241H1215.78V108.288H1174.82V190.72C1174.82 195.84 1177.3 198.4 1182.25 198.4H1210.15V215.808H1176.87Z" fill="#16191D"/>
<path d="M977.289 215.808V90.6243H997.001V111.872H1000.59C1003.32 105.899 1007.92 100.523 1014.41 95.7443C1021.07 90.795 1030.79 88.3203 1043.59 88.3203C1052.98 88.3203 1061.34 90.283 1068.68 94.2083C1076.19 98.1337 1082.16 103.936 1086.6 111.616C1091.04 119.296 1093.26 128.768 1093.26 140.032V215.808H1073.03V141.568C1073.03 129.11 1069.88 120.064 1063.56 114.432C1057.42 108.8 1049.05 105.984 1038.47 105.984C1026.36 105.984 1016.46 109.91 1008.78 117.76C1001.27 125.611 997.513 137.302 997.513 152.832V215.808H977.289Z" fill="#16191D"/>
<path d="M868.416 218.112C859.37 218.112 851.008 216.149 843.328 212.224C835.818 208.299 829.845 202.496 825.408 194.816C821.141 186.965 819.008 177.493 819.008 166.4V90.624H839.232V164.864C839.232 177.323 842.304 186.368 848.448 192C854.762 197.632 863.21 200.448 873.792 200.448C885.738 200.448 895.552 196.523 903.232 188.672C910.912 180.821 914.752 169.131 914.752 153.6V90.624H934.976V215.808H915.264V194.56H911.68C908.949 200.533 904.256 205.995 897.6 210.944C890.944 215.723 881.216 218.112 868.416 218.112Z" fill="#16191D"/>
<path d="M725.165 219.392C712.194 219.392 702.04 216.918 694.701 211.968C687.533 207.019 682.328 201.387 679.085 195.072H675.501V215.808H655.789V36.6084H676.013V110.336H679.597C681.645 106.411 684.546 102.742 688.301 99.3284C692.056 95.7444 696.92 92.8431 702.893 90.6244C709.037 88.2351 716.461 87.0404 725.165 87.0404C736.088 87.0404 745.986 89.6857 754.861 94.9764C763.906 100.096 771.074 107.52 776.365 117.248C781.656 126.806 784.301 138.24 784.301 151.552V154.88C784.301 168.192 781.57 179.712 776.109 189.44C770.818 199.168 763.65 206.592 754.605 211.712C745.73 216.832 735.917 219.392 725.165 219.392ZM719.789 201.472C732.76 201.472 743.256 197.376 751.277 189.184C759.469 180.822 763.565 169.216 763.565 154.368V152.064C763.565 137.216 759.469 125.696 751.277 117.504C743.256 109.142 732.76 104.96 719.789 104.96C706.989 104.96 696.408 109.142 688.045 117.504C679.853 125.696 675.757 137.216 675.757 152.064V154.368C675.757 169.216 679.853 180.822 688.045 189.184C696.408 197.376 706.989 201.472 719.789 201.472Z" fill="#16191D"/>
<path d="M546.916 218.112C537.87 218.112 529.508 216.149 521.828 212.224C514.318 208.299 508.345 202.496 503.908 194.816C499.641 186.965 497.508 177.493 497.508 166.4V90.624H517.732V164.864C517.732 177.323 520.804 186.368 526.948 192C533.262 197.632 541.71 200.448 552.292 200.448C564.238 200.448 574.052 196.523 581.732 188.672C589.412 180.821 593.252 169.131 593.252 153.6V90.624H613.476V215.808H593.764V194.56H590.18C587.449 200.533 582.756 205.995 576.1 210.944C569.444 215.723 559.716 218.112 546.916 218.112Z" fill="#16191D"/>
<path d="M361.289 215.808V36.6084H381.513V142.08H385.097L442.441 90.6244H470.601L401.225 151.552L472.649 215.808H444.745L385.097 161.28H381.513V215.808H361.289Z" fill="#16191D"/>
</svg>
