<svg width="1920" height="1080" viewBox="0 0 1920 1080" fill="none" xmlns="http://www.w3.org/2000/svg">
<rect width="1920" height="1080" fill="url(#paint0_linear_44_3649)"/>
<path fill-rule="evenodd" clip-rule="evenodd" d="M829.999 570C846.568 570 860 556.567 860 539.999C860 523.431 846.568 510 829.999 510C813.431 510 800 523.431 800 539.999C800 556.567 813.431 570 829.999 570ZM821.746 549.269C822.031 549.523 822.038 549.973 821.746 550.218L814.549 556.241C814.295 556.453 813.917 556.42 813.704 556.166L811.165 553.14C810.985 552.926 810.977 552.616 811.146 552.393L814.835 547.506C814.27 546.366 813.845 545.19 813.554 543.997L807.591 542.625C807.318 542.563 807.125 542.32 807.125 542.041V537.959C807.125 537.68 807.318 537.437 807.591 537.374L813.559 536.002C813.853 534.792 814.281 533.614 814.834 532.493L811.146 527.607C810.977 527.384 810.985 527.074 811.165 526.86L813.813 523.703C813.978 523.507 814.258 523.45 814.487 523.567L821.796 529.744C822.087 529.99 822.077 530.441 821.791 530.693C817.445 534.518 816.248 540.998 819.255 546.204C819.936 547.384 820.782 548.41 821.746 549.269ZM842.976 542.039C842.618 541.909 842.231 542.14 842.154 542.513C841.892 543.778 841.427 545.024 840.746 546.204C837.74 551.41 831.53 553.614 826.044 551.763C825.683 551.641 825.287 551.858 825.22 552.233L823.525 561.652C823.538 561.908 823.727 562.122 823.98 562.166L828.037 562.882C828.313 562.93 828.585 562.782 828.694 562.525L831.081 556.887C832.329 556.806 833.562 556.587 834.758 556.237L838.931 560.72C839.121 560.924 839.428 560.97 839.67 560.831L843.204 558.79C843.447 558.65 843.56 558.362 843.478 558.094L841.684 552.244C842.572 551.396 843.378 550.439 844.083 549.38L850.16 550.132C850.437 550.166 850.702 550.004 850.797 549.741L852.148 546.029C852.261 545.718 852.101 545.374 851.79 545.261L842.976 542.039ZM826.099 528.217C825.738 528.337 825.344 528.118 825.278 527.743L823.66 518.499C823.603 518.172 823.821 517.862 824.147 517.804L828.037 517.118C828.313 517.07 828.585 517.218 828.694 517.475L831.082 523.114C832.351 523.194 833.583 523.414 834.762 523.759L838.931 519.28C839.121 519.076 839.428 519.03 839.67 519.169L843.205 521.21C843.447 521.35 843.56 521.638 843.478 521.906L841.682 527.761C842.584 528.621 843.39 529.58 844.084 530.62L850.16 529.868C850.437 529.834 850.702 529.996 850.797 530.259L852.206 534.13C852.294 534.372 852.204 534.642 851.988 534.782L842.984 538.023C842.626 538.152 842.24 537.918 842.165 537.544C841.025 531.868 836.012 527.592 829.999 527.592C828.637 527.592 827.326 527.812 826.099 528.217Z" fill="white"/>
<g clip-path="url(#clip0_44_3649)">
<path d="M1103.85 561.12C1101.73 561.12 1099.77 560.66 1097.97 559.74C1096.21 558.82 1094.81 557.46 1093.77 555.66C1092.77 553.82 1092.27 551.6 1092.27 549V531.24H1097.01V548.64C1097.01 551.56 1097.73 553.68 1099.17 555C1100.65 556.32 1102.63 556.98 1105.11 556.98C1107.91 556.98 1110.21 556.06 1112.01 554.22C1113.81 552.38 1114.71 549.64 1114.71 546V531.24H1119.45V560.58H1114.83V555.6H1113.99C1113.35 557 1112.25 558.28 1110.69 559.44C1109.13 560.56 1106.85 561.12 1103.85 561.12Z" fill="white"/>
<path d="M1075.83 560.58C1074.15 560.58 1072.85 560.12 1071.93 559.2C1071.05 558.28 1070.61 557.02 1070.61 555.42V535.38H1061.79V531.24H1070.61V520.8H1075.35V531.24H1084.95V535.38H1075.35V554.7C1075.35 555.9 1075.93 556.5 1077.09 556.5H1083.63V560.58H1075.83Z" fill="white"/>
<path d="M1029.05 560.58V531.24H1033.67V536.22H1034.51C1035.15 534.82 1036.23 533.56 1037.75 532.44C1039.31 531.28 1041.59 530.7 1044.59 530.7C1046.79 530.7 1048.75 531.16 1050.47 532.08C1052.23 533 1053.63 534.36 1054.67 536.16C1055.71 537.96 1056.23 540.18 1056.23 542.82V560.58H1051.49V543.18C1051.49 540.26 1050.75 538.14 1049.27 536.82C1047.83 535.5 1045.87 534.84 1043.39 534.84C1040.55 534.84 1038.23 535.76 1036.43 537.6C1034.67 539.44 1033.79 542.18 1033.79 545.82V560.58H1029.05Z" fill="white"/>
<path d="M1003.53 561.12C1001.41 561.12 999.454 560.66 997.654 559.74C995.894 558.82 994.494 557.46 993.454 555.66C992.454 553.82 991.954 551.6 991.954 549V531.24H996.694V548.64C996.694 551.56 997.414 553.68 998.854 555C1000.33 556.32 1002.31 556.98 1004.79 556.98C1007.59 556.98 1009.89 556.06 1011.69 554.22C1013.49 552.38 1014.39 549.64 1014.39 546V531.24H1019.13V560.58H1014.51V555.6H1013.67C1013.03 557 1011.93 558.28 1010.37 559.44C1008.81 560.56 1006.53 561.12 1003.53 561.12Z" fill="white"/>
<path d="M969.961 561.42C966.921 561.42 964.541 560.84 962.821 559.68C961.141 558.52 959.921 557.2 959.161 555.72H958.321V560.58H953.701V518.58H958.441V535.86H959.281C959.761 534.94 960.441 534.08 961.321 533.28C962.201 532.44 963.341 531.76 964.741 531.24C966.181 530.68 967.921 530.4 969.961 530.4C972.521 530.4 974.841 531.02 976.921 532.26C979.041 533.46 980.721 535.2 981.961 537.48C983.201 539.72 983.821 542.4 983.821 545.52V546.3C983.821 549.42 983.181 552.12 981.901 554.4C980.661 556.68 978.981 558.42 976.861 559.62C974.781 560.82 972.481 561.42 969.961 561.42ZM968.701 557.22C971.741 557.22 974.201 556.26 976.081 554.34C978.001 552.38 978.961 549.66 978.961 546.18V545.64C978.961 542.16 978.001 539.46 976.081 537.54C974.201 535.58 971.741 534.6 968.701 534.6C965.701 534.6 963.221 535.58 961.261 537.54C959.341 539.46 958.381 542.16 958.381 545.64V546.18C958.381 549.66 959.341 552.38 961.261 554.34C963.221 556.26 965.701 557.22 968.701 557.22Z" fill="white"/>
<path d="M928.183 561.12C926.063 561.12 924.103 560.66 922.303 559.74C920.543 558.82 919.143 557.46 918.103 555.66C917.103 553.82 916.603 551.6 916.603 549V531.24H921.343V548.64C921.343 551.56 922.063 553.68 923.503 555C924.983 556.32 926.963 556.98 929.443 556.98C932.243 556.98 934.543 556.06 936.343 554.22C938.143 552.38 939.043 549.64 939.043 546V531.24H943.783V560.58H939.163V555.6H938.323C937.683 557 936.583 558.28 935.023 559.44C933.463 560.56 931.183 561.12 928.183 561.12Z" fill="white"/>
<path d="M884.678 560.58V518.58H889.418V543.3H890.258L903.698 531.24H910.298L894.038 545.52L910.778 560.58H904.238L890.258 547.8H889.418V560.58H884.678Z" fill="white"/>
</g>
<defs>
<linearGradient id="paint0_linear_44_3649" x1="960" y1="540" x2="1920" y2="-1.03315e-05" gradientUnits="userSpaceOnUse">
<stop stop-color="#0064FF"/>
<stop offset="1" stop-color="#00AAFF"/>
</linearGradient>
<clipPath id="clip0_44_3649">
<rect width="235.312" height="43.125" fill="white" transform="translate(884.375 518.438)"/>
</clipPath>
</defs>
</svg>
